<?xml version="1.0" standalone="no"?><!DOCTYPE svg PUBLIC "-//W3C//DTD SVG 1.1//EN" "http://www.w3.org/Graphics/SVG/1.1/DTD/svg11.dtd"><svg t="1729057554018" class="icon" viewBox="0 0 1024 1024" version="1.1" xmlns="http://www.w3.org/2000/svg" p-id="5295" xmlns:xlink="http://www.w3.org/1999/xlink" width="200" height="200"><path d="M129.98576 690.592a33.824 33.824 0 0 0 33.76-33.76V210.976c0-41.28 34.464-71.264 81.824-71.264h553.856V72.352H246.08176a156.896 156.896 0 0 0-104.032 37.12A132.864 132.864 0 0 0 96.00176 210.976v445.856a33.6 33.6 0 0 0 33.984 33.76z m740.704-394.56c-6.368 6.336-9.92 14.912-9.92 23.872v426.816c0 48-38.272 90.272-81.856 90.272H223.87376v67.36H778.88176a143.552 143.552 0 0 0 106.88-49.376A163.808 163.808 0 0 0 928.00176 746.72V319.904c0-18.464-14.88-33.504-33.376-33.76-8.96 0-17.6 3.52-23.936 9.888z" fill="#ffffff" p-id="5296"></path><path d="M747.13776 0l144.704 126.624-144.704 126.592zM276.86576 1012.864L132.16176 886.272l144.704-126.624z" fill="#ffffff" p-id="5297"></path><path d="M636.44976 387.552v248.896h-49.792V387.52h49.792z m-199.104 0v248.896H387.52176V387.52h49.792z m-99.552 74.656v99.552H288.00176v-99.52h49.792z m398.208 0v99.552h-49.792v-99.52H736.00176z m-199.104-149.312v398.208h-49.792V312.896h49.792z" fill="#ffffff" p-id="5298"></path></svg>